# xmcd
#
# Track frame offsets: 
#        150
#        7445
#        34070
#        57657
#        73182
#        88930
#        105882
#        119252
#        135877
#        147340
#        163502
#        193015
#        207640
#        218177
#        228377
#
# Disc length: 3344 seconds
#
# Revision: 9
# Processed by: cddbd v1.5.2PL0 Copyright (c) Steve Scherf et al.
# Submitted via: ExactAudioCopy v1.0b1
#
DISCID=e20d0e0f
DTITLE=Various Artist - 25 Years of Rounder Records (Disc1)
DYEAR=1995
DGENRE=Blues
TTITLE0=Robert Nighthawk - Mr. Bell's Shuffle
TTITLE1=J. B. Hutto - Jealous Hearted Woman
TTITLE2=Jimmy Rogers with Ronnie Earl and the Broadcasters - Left Me Wit
TTITLE2=h a Broken Heart
TTITLE3=Frank Hovington - Mean Old Frisco
TTITLE4=Booker T. Laury - Blues with a Feeling
TTITLE5=Johnny Shines and Robert Jr. Lockwood - Lonesome Whistle
TTITLE6=Luther "Guitar Junior" Johnson - Ain't Treating Me Right
TTITLE7=Tracy Nelson - I Feel So Good
TTITLE8=Ted Hawkins - Peace and Happiness
TTITLE9=Holmes Brothers - Up Above My Head
TTITLE10=Clarence "Gatemouth" Brown - Sometimes I Slip
TTITLE11=Bluestime - Full Court Press
TTITLE12=Rory Block - Since You Been Gone
TTITLE13=Professor Longhair - 501 Boogie
TTITLE14=Champion Jack Dupree - Give Me the Flowers While I'm Livin'
EXTD=
EXTT0=
EXTT1=
EXTT2=
EXTT3=
EXTT4=
EXTT5=
EXTT6=
EXTT7=
EXTT8=
EXTT9=
EXTT10=
EXTT11=
EXTT12=
EXTT13=
EXTT14=
PLAYORDER=
